<?xml version="1.0" standalone="no"?><svg xmlns="http://www.w3.org/2000/svg" viewBox="0 0 1440 320"><path fill="#23b57480" fill-opacity="1" d="M0,256L40,256C80,256,160,256,240,218.7C320,181,400,107,480,64C560,21,640,11,720,37.3C800,64,880,128,960,144C1040,160,1120,128,1200,101.3C1280,75,1360,53,1400,42.7L1440,32L1440,320L1400,320C1360,320,1280,320,1200,320C1120,320,1040,320,960,320C880,320,800,320,720,320C640,320,560,320,480,320C400,320,320,320,240,320C160,320,80,320,40,320L0,320Z"></path></svg>