<?xml version="1.0" standalone="no"?><svg xmlns="http://www.w3.org/2000/svg" viewBox="0 0 1440 320"><path fill="#23b57433" fill-opacity="1" d="M0,128L40,128C80,128,160,128,240,133.3C320,139,400,149,480,170.7C560,192,640,224,720,229.3C800,235,880,213,960,170.7C1040,128,1120,64,1200,85.3C1280,107,1360,213,1400,266.7L1440,320L1440,320L1400,320C1360,320,1280,320,1200,320C1120,320,1040,320,960,320C880,320,800,320,720,320C640,320,560,320,480,320C400,320,320,320,240,320C160,320,80,320,40,320L0,320Z"></path></svg>