<svg xmlns="http://www.w3.org/2000/svg" width="126" height="32" viewBox="0 0 126 32" fill="none">
    <rect x="16" y="2.66666" width="13.3333" height="13.3333" fill="#A0A0A0" stroke="#202020"
        stroke-linejoin="round" />
    <path fill-rule="evenodd" clip-rule="evenodd"
        d="M16 2.66666L2.66667 16L16 29.3333L29.3333 16V2.66666L16 2.66666Z" stroke="#202020"
        stroke-linejoin="round" />
    <rect x="2.66667" y="16" width="13.3333" height="13.3333" fill="#202020" stroke="#202020"
        stroke-linejoin="round" />
    <path d="M16 16L29.3333 2.66666" stroke="#202020" />
    <path fill-rule="evenodd" clip-rule="evenodd"
        d="M108.274 10.1417C109.465 10.1417 110.396 9.26158 110.396 8.07084C110.396 6.85422 109.465 6 108.274 6C107.083 6 106.125 6.85422 106.125 8.07084C106.125 9.26158 107.083 10.1417 108.274 10.1417ZM58.2629 18.3992C58.2629 22.4114 55.8815 25 51.2997 25C46.8474 25 44 22.3856 44 17.6226V13.5327C44 8.92507 46.7956 6.15531 51.2997 6.15531C55.7779 6.15531 58.2629 8.74387 58.2629 12.7044V13.248H55.2602V12.7302C55.2602 10.4264 53.9918 8.8733 51.2997 8.8733C48.5817 8.8733 47.0027 10.6853 47.0027 13.4033V17.752C47.0027 20.5736 48.53 22.282 51.2997 22.282C54.1213 22.282 55.2602 20.703 55.2602 18.4251V17.9074H58.2629V18.3992ZM69.7561 22.515C69.2125 23.7057 68.0218 24.8447 65.5886 24.8447C62.8447 24.8447 60.6185 22.9292 60.6185 19.5123V11.876H63.4659V19.2534C63.4659 21.2466 64.579 22.3597 66.5463 22.3597C68.7725 22.3597 70.0668 20.9619 70.0668 18.5027V11.876H72.9142V24.6376H70.1185V22.515H69.7561ZM83.5531 25C86.8406 25 89.4809 22.1785 89.4809 18.2439C89.4809 14.3093 86.8406 11.5136 83.5531 11.5136C81.1717 11.5136 80.0327 12.6526 79.3338 13.7657H79.0232V6.51771H76.1758V24.6376H78.9714V22.7221H79.3338C80.0327 23.861 81.1717 25 83.5531 25ZM79.0232 18.2439C79.0232 20.8583 80.5504 22.4632 82.8025 22.4632C85.0027 22.4632 86.6335 20.936 86.6335 18.2439C86.6335 15.5518 85.0027 14.0504 82.8025 14.0504C80.5504 14.0504 79.0232 15.6294 79.0232 18.2439ZM97.7643 25C101.518 25 104.391 22.2302 104.391 18.2439C104.391 14.2575 101.518 11.5136 97.7643 11.5136C94.0109 11.5136 91.1376 14.2575 91.1376 18.2439C91.1376 22.2302 94.0109 25 97.7643 25ZM93.985 18.2439C93.985 20.8065 95.5123 22.4373 97.7643 22.4373C100.016 22.4373 101.544 20.8065 101.544 18.2439C101.544 15.6812 100.016 14.0763 97.7643 14.0763C95.5123 14.0763 93.985 15.6812 93.985 18.2439ZM109.698 11.876V24.6376H106.85V11.876H109.698ZM118.084 25C120.466 25 121.631 23.861 122.304 22.7221H122.666V24.6376H125.462V6.51771H122.614V13.7657H122.304C121.631 12.6526 120.466 11.5136 118.084 11.5136C114.823 11.5136 112.157 14.3093 112.157 18.2439C112.157 22.1785 114.823 25 118.084 25ZM115.004 18.2439C115.004 20.936 116.635 22.4632 118.835 22.4632C121.087 22.4632 122.614 20.8583 122.614 18.2439C122.614 15.6294 121.087 14.0504 118.835 14.0504C116.635 14.0504 115.004 15.5518 115.004 18.2439Z"
        fill="#202020" />
</svg>